<svg xmlns="http://www.w3.org/2000/svg" width="24" height="24" viewBox="0 0 24 24" fill="none" stroke="currentColor" stroke-width="2" stroke-linecap="round" stroke-linejoin="round">
  <path d="M6 2h12a2 2 0 0 1 2 2v16a2 2 0 0 1-2 2H6a2 2 0 0 1-2-2V4a2 2 0 0 1 2-2z"></path>
  <rect x="8" y="4" width="8" height="2" rx="1"></rect>
  <path d="M8 8h.01"></path>
  <path d="M12 8h.01"></path>
  <path d="M16 8h.01"></path>
  <path d="M8 12h.01"></path>
  <path d="M12 12h.01"></path>
  <path d="M16 12h.01"></path>
  <path d="M8 16h.01"></path>
  <path d="M12 16h.01"></path>
  <path d="M16 16h.01"></path>
  <path d="M4 10a8 8 0 0 1 8-8"></path>
  <path d="M4 14a12 12 0 0 1 12-12"></path>
  <path d="M4 18a16 16 0 0 1 16-16"></path>
</svg>
